<svg width="20" height="20" viewBox="0 0 20 20" fill="none" xmlns="http://www.w3.org/2000/svg">
<path d="M3.6416 0.00413782L20 10.9254V9.9828L5.05566 0.00413782H3.6416ZM6.95789 0.00413782L20 6.63954V5.75974L8.68758 0.00413782H6.95789ZM11.2632 0.00413782L20 3.02438V2.19695L13.5652 0.00413782C11.259 -0.00256545 11.2758 -5.17228e-05 11.2632 0.00413782ZM0.00883779 0.0929562V0.724321L1.46497 2.35531C1.71075 2.58364 2.03312 2.59118 2.26459 2.36076C2.50153 2.12447 2.50573 1.80439 2.28142 1.56349C1.75536 1.07289 1.22846 0.583133 0.701976 0.0929562H0.00883779ZM2.96825 1.16548C3.2136 1.50651 3.27673 1.93594 3.16731 2.32515C3.57427 2.63559 3.95724 3.02019 4.34863 3.37379C5.07249 3.31723 5.61539 3.91215 5.99836 4.30596C6.04044 3.75294 5.8721 3.15803 5.426 2.75332C4.95886 2.32724 4.38651 2.00339 3.87307 1.64434C3.57427 1.43696 3.29777 1.2279 2.96825 1.16506V1.16548ZM1.43972 4.05459C1.81007 4.54477 2.20946 5.06846 2.57349 5.58796C3.01707 6.01111 3.60794 6.2164 4.16767 6.17031C3.76786 5.70946 3.15889 5.16063 3.23885 4.58666C2.87314 4.13838 2.52131 3.71943 2.17368 3.26905C1.7642 3.35996 1.31936 3.2569 0.983524 2.97704C0.992782 3.41401 1.22046 3.76132 1.43972 4.05459ZM0 3.80741V5.2109L9.90384 20H10.8507L0 3.80741ZM4.16346 4.27245C3.95724 4.47354 3.95724 4.72911 4.14662 4.93858C5.07249 6.01949 5.99836 7.10877 6.92423 8.19386C7.23986 8.47875 7.66071 8.48713 7.95531 8.18967C8.26253 7.88802 8.26673 7.46488 7.98056 7.15485C6.85268 6.1745 5.76689 5.11873 4.80315 4.28083C4.59272 4.0923 4.34021 4.10486 4.16346 4.27245ZM7.13465 5.32821C7.81222 5.89799 8.83067 6.58927 8.9443 7.39366C9.62187 8.0179 10.3247 8.65052 11.0107 9.27476C12.2353 9.14489 12.9676 10.3347 13.6199 10.9296C13.8093 9.85711 13.5316 8.66309 12.6604 7.87127C11.8566 7.1381 10.977 6.62697 10.1984 6.06138C9.54191 5.57958 8.83067 5.2109 8.08156 5.19415C7.75751 5.19415 7.41241 5.24442 7.13465 5.32821ZM0 7.15066V8.87257L5.6701 20H6.55388L0 7.15066ZM5.1777 7.35176C4.89153 8.36563 5.30396 9.37531 5.93944 10.2928C6.52442 11.1391 7.17674 12.0357 7.69859 12.7772C8.62025 13.8037 9.84913 14.0131 10.9854 13.7283C10.3794 13.037 9.50403 12.287 9.32306 11.4156C8.55291 10.4855 8.08156 9.94928 7.38716 9.17421C6.48654 9.22868 5.87631 8.23995 5.1777 7.35176ZM10.3878 10.3473C9.92909 10.7956 10.0638 11.4617 10.3752 11.8052L14.9456 17.1553C15.56 17.7293 16.4312 17.7418 17.0204 17.1553C17.6222 16.5646 17.6264 15.6973 17.0541 15.0899C15.3117 13.5104 13.5526 11.9393 11.8103 10.3599C11.3011 9.95347 10.8213 9.93671 10.3878 10.3473ZM0 11.3947V13.8162L2.09877 20H2.92995L0 11.3947ZM15.0971 12.2619C15.9599 12.9993 16.7805 13.7911 17.6264 14.5452C17.9799 14.8594 18.1525 15.3119 18.2198 15.7434C18.4008 15.8314 18.5775 15.9529 18.7375 16.1037L19.9916 17.2517V12.9029C18.3671 11.91 16.8605 11.6125 15.0971 12.2619ZM12.2227 15.1778C11.6293 16.7657 11.8524 18.5881 12.8834 20H17.1845C15.9262 18.4373 17.1845 20.0126 15.842 18.3577C15.3202 18.32 14.7815 18.1315 14.3943 17.7167C13.641 16.9081 12.9424 16.0241 12.2227 15.1778Z" fill="#FF1111"/>
</svg>
