<svg width="30" height="30" viewBox="0 0 30 30" fill="none" xmlns="http://www.w3.org/2000/svg">
<rect width="30" height="30" rx="15" fill="#F12323"/>
<path fill-rule="evenodd" clip-rule="evenodd" d="M7.81518 21.2581C7.6683 19.767 7.57854 18.19 7.5459 16.5269L9.7246 16.5269C9.74092 17.9892 9.85516 19.509 10.0673 21.086C10.2958 22.6344 10.5488 23.9247 10.8262 24.957L8.42717 24.957C8.16606 23.9534 7.96206 22.7204 7.81518 21.2581ZM14.3023 16.5269L16.8482 16.5269C17.0114 17.5305 17.1828 18.319 17.3623 18.8925C17.5581 19.4659 17.7866 19.8817 18.0477 20.1398C18.3252 20.3978 18.6434 20.5269 19.0024 20.5269C19.3288 20.5269 19.6144 20.3835 19.8592 20.0968C20.104 19.7814 20.2999 19.3369 20.4468 18.7634C20.61 18.1613 20.7079 17.4158 20.7405 16.5269L22.9437 16.5269C22.8784 18.2186 22.6744 19.7097 22.3317 21C21.989 22.2616 21.5239 23.2509 20.9364 23.9677C20.3652 24.6559 19.6797 25 18.88 25C18.2925 25 17.7703 24.8423 17.3133 24.5269C16.8564 24.1828 16.4484 23.681 16.0894 23.0215C15.7466 22.3333 15.4284 21.4588 15.1346 20.3978C14.8409 19.3082 14.5634 18.0179 14.3023 16.5269ZM7.64382 13.7312C7.80702 10.9211 8.25581 8.77061 8.99021 7.27957C9.7246 5.75986 10.6712 5 11.8299 5C12.6948 5 13.3884 5.35842 13.9106 6.07527C14.4492 6.79211 14.898 7.81004 15.257 9.12903C15.6161 10.4194 15.9588 11.9534 16.2852 13.7312L13.7393 13.7312C13.5598 12.6703 13.3803 11.8387 13.2007 11.2366C13.0212 10.6057 12.8091 10.1613 12.5643 9.90323C12.3195 9.61649 12.0257 9.47312 11.683 9.47312C11.1771 9.47312 10.7609 9.8172 10.4345 10.5054C10.1244 11.1649 9.92044 12.2401 9.82252 13.7312L7.64382 13.7312ZM20.7895 13.7312C20.7405 12.6416 20.6344 11.5376 20.4712 10.4194C20.3244 9.2724 20.1367 8.21147 19.9082 7.23656L22.0135 5.8172C22.2909 6.96416 22.5112 8.18279 22.6744 9.47312C22.8539 10.7634 22.9519 12.1828 22.9682 13.7312L20.7895 13.7312Z" fill="white"/>
<path d="M7.64382 13.7312L9.82252 13.7312L9.7246 16.5269L7.5459 16.5269L7.64382 13.7312Z" fill="white"/>
<path d="M13.7393 13.7312L16.2852 13.7312L16.8482 16.5269L14.3023 16.5269L13.7393 13.7312Z" fill="white"/>
<path d="M22.9437 16.5269L20.7405 16.5269L20.7895 13.7312L22.9682 13.7312L22.9437 16.5269Z" fill="white"/>
<path d="M14.3023 16.5269L9.7246 16.5269L9.82252 13.7312L13.7393 13.7312L14.3023 16.5269Z" fill="#0011FF"/>
<path d="M16.2852 13.7312L20.7895 13.7312L20.7405 16.5269L16.8482 16.5269L16.2852 13.7312Z" fill="#0011FF"/>
<path d="M25 16.5269L22.9437 16.5269L22.9682 13.7312L25 13.7312L25 16.5269Z" fill="#0011FF"/>
<path d="M5 13.7312L7.64382 13.7312L7.5459 16.5269L5 16.5269L5 13.7312Z" fill="#0011FF"/>
</svg>
